HIERARCHY
ROOT Hips
{
	OFFSET 0.000000 0.000000 0.000000
	CHANNELS 6 Xposition Yposition Zposition Zrotation Yrotation Xrotation
	JOINT LHipJoint
	{
		OFFSET 0.000000 0.000000 0.000000
		CHANNELS 6 Xposition Yposition Zposition Zrotation Yrotation Xrotation
		JOINT LeftUpLeg
		{
			OFFSET 1.363060 -0.839290 -1.794630
			CHANNELS 3 Zrotation Yrotation Xrotation
			JOINT LeftLeg
			{
				OFFSET 2.448110 0.000001 -6.726130
				CHANNELS 6 Xposition Yposition Zposition Zrotation Yrotation Xrotation
				JOINT LeftFoot
				{
					OFFSET 2.562200 0.000001 -7.039590
					CHANNELS 6 Xposition Yposition Zposition Zrotation Yrotation Xrotation
					JOINT LeftToeBase
					{
						OFFSET 0.157640 -2.322550 -0.433111
						CHANNELS 6 Xposition Yposition Zposition Zrotation Yrotation Xrotation
						End Site
						{
							OFFSET 0.000000 0.000000 0.100000
						}
					}
				}
			}
		}
	}
	JOINT RHipJoint
	{
		OFFSET 0.000000 0.000000 0.000000
		CHANNELS 6 Xposition Yposition Zposition Zrotation Yrotation Xrotation
		JOINT RightUpLeg
		{
			OFFSET -1.305520 -0.839290 -1.794630
			CHANNELS 3 Zrotation Yrotation Xrotation
			JOINT RightLeg
			{
				OFFSET -2.542530 0.000001 -6.985550
				CHANNELS 6 Xposition Yposition Zposition Zrotation Yrotation Xrotation
				JOINT RightFoot
				{
					OFFSET -2.568260 0.000001 -7.056231
					CHANNELS 6 Xposition Yposition Zposition Zrotation Yrotation Xrotation
					JOINT RightToeBase
					{
						OFFSET -0.164730 -2.363150 -0.452591
						CHANNELS 6 Xposition Yposition Zposition Zrotation Yrotation Xrotation
						End Site
						{
							OFFSET 0.000000 0.000000 0.100000
						}
					}
				}
			}
		}
	}
	JOINT LowerBack
	{
		OFFSET 0.000000 0.000000 0.000000
		CHANNELS 6 Xposition Yposition Zposition Zrotation Yrotation Xrotation
		JOINT Spine
		{
			OFFSET 0.028270 0.193380 2.035590
			CHANNELS 3 Zrotation Yrotation Xrotation
			JOINT Spine1
			{
				OFFSET 0.056720 0.042750 2.048850
				CHANNELS 6 Xposition Yposition Zposition Zrotation Yrotation Xrotation
				JOINT Neck
				{
					OFFSET 0.000000 0.000000 0.000000
					CHANNELS 6 Xposition Yposition Zposition Zrotation Yrotation Xrotation
					JOINT Neck1
					{
						OFFSET -0.054170 -0.172020 1.746240
						CHANNELS 3 Zrotation Yrotation Xrotation
						JOINT Head
						{
							OFFSET 0.104070 0.123970 1.761360
							CHANNELS 6 Xposition Yposition Zposition Zrotation Yrotation Xrotation
							End Site
							{
								OFFSET 0.000000 -0.000000 0.100000
							}
						}
					}
				}
				JOINT LeftShoulder
				{
					OFFSET 0.000000 0.000000 0.000000
					CHANNELS 6 Xposition Yposition Zposition Zrotation Yrotation Xrotation
					JOINT LeftArm
					{
						OFFSET 3.362410 0.311210 1.200890
						CHANNELS 3 Zrotation Yrotation Xrotation
						JOINT LeftForeArm
						{
							OFFSET 4.983000 0.000000 0.000000
							CHANNELS 6 Xposition Yposition Zposition Zrotation Yrotation Xrotation
							JOINT LeftHand
							{
								OFFSET 3.483560 0.000000 0.000000
								CHANNELS 6 Xposition Yposition Zposition Zrotation Yrotation Xrotation
								JOINT LeftFingerBase
								{
									OFFSET 0.000000 0.000000 0.000000
									CHANNELS 6 Xposition Yposition Zposition Zrotation Yrotation Xrotation
									JOINT LeftHandIndex1
									{
										OFFSET 0.715260 0.000000 0.000000
										CHANNELS 3 Zrotation Yrotation Xrotation
										End Site
										{
											OFFSET 0.000000 -0.000000 0.100000
										}
									}
								}
								JOINT LThumb
								{
									OFFSET 0.000000 0.000000 0.000000
									CHANNELS 6 Xposition Yposition Zposition Zrotation Yrotation Xrotation
									End Site
									{
										OFFSET 0.000000 -0.000000 0.100000
									}
								}
							}
						}
					}
				}
				JOINT RightShoulder
				{
					OFFSET 0.000000 0.000000 0.000000
					CHANNELS 6 Xposition Yposition Zposition Zrotation Yrotation Xrotation
					JOINT RightArm
					{
						OFFSET -3.136600 0.404650 1.374050
						CHANNELS 3 Zrotation Yrotation Xrotation
						JOINT RightForeArm
						{
							OFFSET -5.241900 0.000000 0.000000
							CHANNELS 6 Xposition Yposition Zposition Zrotation Yrotation Xrotation
							JOINT RightHand
							{
								OFFSET -3.444170 0.000000 0.000000
								CHANNELS 6 Xposition Yposition Zposition Zrotation Yrotation Xrotation
								JOINT RightFingerBase
								{
									OFFSET 0.000000 0.000000 0.000000
									CHANNELS 6 Xposition Yposition Zposition Zrotation Yrotation Xrotation
									JOINT RightHandIndex1
									{
										OFFSET -0.622530 0.000000 0.000000
										CHANNELS 3 Zrotation Yrotation Xrotation
										End Site
										{
											OFFSET 0.000000 0.000000 0.100000
										}
									}
								}
								JOINT RThumb
								{
									OFFSET 0.000000 0.000000 0.000000
									CHANNELS 6 Xposition Yposition Zposition Zrotation Yrotation Xrotation
									End Site
									{
										OFFSET 0.000000 0.000000 0.100000
									}
								}
							}
						}
					}
				}
			}
		}
	}
}
MOTION
Frames: 4
Frame Time: 0.041667
0.000000 0.000000 0.000000 0.000000 -0.000000 0.000000 0.000000 0.000000 0.000000 0.469975 7.279097 1.263841 -3.979472 15.364470 -24.369384 2.448110 0.000002 -6.726130 9.415486 0.347831 26.412640 2.562199 0.000002 -7.039588 13.270317 3.775915 8.599664 0.157641 -2.322550 -0.433112 2.863220 -0.197449 7.888327 0.000000 0.000000 0.000000 -3.001412 -4.137673 4.301327 7.719195 -13.898154 -6.269186 -2.542530 0.000002 -6.985550 -14.806923 7.566268 49.259082 -2.568260 0.000000 -7.056231 -10.218350 -0.179423 31.027879 -0.164730 -2.363149 -0.452589 10.433490 2.787010 -29.838122 0.000000 0.000000 0.000000 1.881907 -1.435850 5.042489 2.517374 -0.690401 -2.305643 0.056720 0.042750 2.048851 1.476789 0.454368 1.003382 -0.000000 -0.000000 -0.000001 4.496458 3.638600 -10.267332 5.928062 -1.281764 -2.332707 0.104070 0.123970 1.761359 2.739083 0.455778 0.719705 -0.000000 -0.000000 -0.000001 -2.345261 4.032777 0.013866 64.486295 84.975032 64.968712 4.983000 -0.000000 0.000001 -17.672889 -7.508776 0.310522 3.483560 0.000000 -0.000001 -0.561679 0.883045 -14.556834 -0.000000 0.000000 0.000000 20.196518 -21.251244 0.454138 0.000005 7.124998 -0.000001 -0.000001 0.000001 0.000001 50.571031 3.009831 3.014027 0.000000 0.000000 -0.000001 2.585872 -7.218657 -0.107978 36.831819 -68.757896 1.978942 -5.241900 0.000000 -0.000000 24.479379 11.484755 1.876711 -3.444170 0.000000 -0.000000 -0.877298 -0.556084 -9.215641 -0.000000 0.000000 -0.000000 18.260523 21.587412 -0.529946 -0.000000 -7.125000 0.000003 0.000001 -0.000000 0.000000 -10.664065 -3.213444 3.218561 
0.000000 0.000000 0.000000 0.000000 -0.000000 0.000000 0.000000 0.000000 0.000000 0.545624 7.342090 1.488531 -3.951808 15.374447 -23.744987 2.448110 0.000002 -6.726130 9.282318 0.402887 26.182098 2.562200 0.000002 -7.039591 13.117548 3.729250 8.481072 0.157642 -2.322549 -0.433112 2.751213 -0.182183 7.577947 0.000000 0.000000 0.000000 -2.873537 -4.091910 4.003689 7.971984 -13.998527 -7.533408 -2.542530 0.000002 -6.985551 -15.372613 8.391453 51.282860 -2.568261 0.000002 -7.056230 -12.035633 -0.734602 29.710831 -0.164730 -2.363148 -0.452591 9.857551 2.468746 -28.058060 0.000000 0.000000 0.000000 1.799766 -1.455188 5.103703 2.427972 -0.708511 -2.254324 0.056720 0.042750 2.048851 1.406524 0.386045 1.168362 -0.000000 -0.000000 0.000000 4.506482 3.632540 -10.603977 5.975404 -1.213861 -2.128834 0.104070 0.123970 1.761361 2.759993 0.473150 0.870611 -0.000000 -0.000000 -0.000000 -2.352517 4.035729 0.014966 58.756586 85.404419 61.276284 4.983000 -0.000001 0.000001 -18.378847 -7.915084 0.409611 3.483559 0.000000 -0.000001 -0.547295 0.894501 -15.872922 0.000001 0.000000 0.000001 19.453806 -22.019125 0.434016 0.000004 7.125001 0.000001 0.000000 -0.000000 -0.000000 49.774997 2.469805 2.472125 0.000000 0.000000 0.000001 2.572495 -7.240090 -0.112708 36.365297 -68.973900 1.994716 -5.241900 0.000001 -0.000000 23.812314 11.066280 1.742815 -3.444170 0.000000 0.000000 -0.841509 -0.544002 -8.432909 0.000001 0.000000 -0.000001 17.193248 20.957980 -0.493376 0.000001 -7.125000 0.000000 0.000001 -0.000000 -0.000000 -11.800062 -3.626228 3.633517 
0.000000 0.000000 0.000000 0.000000 -0.000000 0.000000 0.000000 0.000000 0.000000 0.612591 7.404602 1.680119 -4.163980 15.371508 -23.170775 2.448110 0.000002 -6.726129 9.140145 0.465568 25.952736 2.562201 0.000001 -7.039593 12.820754 3.634534 8.271974 0.157638 -2.322550 -0.433109 2.773117 -0.185185 7.638829 0.000000 0.000000 0.000000 -2.736997 -4.057269 3.732361 8.076179 -14.117309 -8.881333 -2.542530 0.000002 -6.985549 -15.851862 9.094166 53.120481 -2.568260 -0.000000 -7.056231 -13.369743 -1.249330 28.129550 -0.164730 -2.363149 -0.452590 9.531451 2.298749 -27.061638 0.000000 0.000000 0.000000 1.650301 -1.481544 5.081718 2.246278 -0.729275 -2.242613 0.056720 0.042750 2.048851 1.290284 0.312186 1.250651 -0.000000 -0.000000 -0.000002 4.509979 3.832602 -10.772081 6.020543 -1.403471 -1.990273 0.104070 0.123970 1.761361 2.793952 0.352380 0.948197 0.000000 -0.000000 -0.000001 -2.366629 4.049134 0.017619 51.431038 85.847241 55.173046 4.983001 -0.000000 -0.000000 -18.877910 -8.221145 0.486018 3.483560 -0.000000 -0.000000 -0.544185 0.893339 -15.977057 0.000000 -0.000000 -0.000000 19.309380 -21.768380 0.428376 0.000003 7.125001 0.000001 -0.000000 0.000001 0.000001 49.628322 2.640748 2.643563 0.000000 0.000000 -0.000001 2.559971 -7.243357 -0.125037 35.666360 -69.289496 2.077700 -5.241899 0.000000 0.000000 23.289794 10.727490 1.638549 -3.444169 0.000000 -0.000000 -0.807859 -0.526435 -7.915108 0.000000 0.000000 -0.000000 16.384903 20.213608 -0.455827 -0.000001 -7.125002 -0.000001 0.000001 0.000000 -0.000000 -12.678110 -4.126348 4.137171 
0.000000 0.000000 0.000000 0.000000 -0.000000 0.000000 0.000000 0.000000 0.000000 0.685062 7.467904 1.885350 -4.355218 15.678867 -22.558520 2.448110 0.000001 -6.726129 9.009152 0.528130 25.815835 2.562200 0.000002 -7.039590 12.252469 3.449300 7.747053 0.157641 -2.322551 -0.433109 2.892516 -0.201542 7.969314 0.000000 0.000000 0.000000 -2.620360 -4.008276 3.486458 8.146433 -13.932801 -10.135701 -2.542530 0.000003 -6.985550 -16.268256 9.700402 54.733595 -2.568260 0.000001 -7.056231 -14.637847 -1.828716 26.101983 -0.164730 -2.363147 -0.452588 8.935931 2.006361 -25.262392 0.000000 0.000000 0.000000 1.466156 -1.189529 5.103543 2.003074 -0.738049 -2.219011 0.056720 0.042750 2.048851 1.135730 0.100662 1.316270 -0.000000 -0.000000 0.000001 4.489548 4.164420 -10.773578 6.032782 -1.534560 -2.075420 0.104070 0.123970 1.761361 2.808826 0.239212 0.899935 -0.000000 -0.000000 0.000000 -2.388757 4.056103 0.024881 44.986027 86.242654 50.183435 4.983000 -0.000000 -0.000000 -19.553291 -8.623129 0.583288 3.483559 0.000000 -0.000000 -0.546443 0.903952 -16.631509 0.000000 0.000000 0.000001 19.407175 -22.165753 0.430200 0.000004 7.124998 0.000000 -0.000001 0.000001 0.000000 49.707385 2.359794 2.361844 0.000000 0.000000 0.000001 2.534592 -7.237398 -0.134266 34.635322 -69.684862 2.272363 -5.241900 0.000000 0.000000 22.821880 10.407601 1.530877 -3.444170 0.000000 0.000000 -0.810341 -0.493643 -7.160868 -0.000001 0.000000 -0.000001 16.575740 19.610861 -0.436431 -0.000002 -7.125000 0.000002 0.000001 0.000000 -0.000000 -12.517572 -4.549215 4.563636 
